<svg width="1222" height="497" viewBox="0 0 1222 497" fill="none" xmlns="http://www.w3.org/2000/svg">
<path d="M320.179 430.331H281.363C280.97 430.331 280.648 430.016 280.638 429.623L280.31 415.809C280.3 415.415 279.978 415.101 279.585 415.101H217.205C216.802 415.101 216.477 415.429 216.48 415.832L216.831 460.07C216.834 460.468 217.158 460.79 217.556 460.79H279.93C280.331 460.79 280.655 460.465 280.655 460.064V446.648C280.655 446.247 280.98 445.923 281.381 445.923H320.179C320.58 445.923 320.905 446.247 320.905 446.648V472.756C320.905 484.771 311.164 494.512 299.148 494.512H201.245C187.226 494.512 175.862 483.148 175.862 469.129V406.761C175.862 392.743 187.226 381.379 201.245 381.379H299.148C311.164 381.379 320.905 391.12 320.905 403.135V429.605C320.905 430.006 320.58 430.331 320.179 430.331Z" fill="white"/>
<path fill-rule="evenodd" clip-rule="evenodd" d="M8.32422 494.149H48.936V468.042H112.392V494.149H152.641V403.135C152.641 391.12 142.901 381.379 130.885 381.379H30.0806C18.0649 381.379 8.32422 391.12 8.32422 403.135V494.149ZM111.667 436.132C112.067 436.132 112.392 435.808 112.392 435.407V415.826C112.392 415.426 112.067 415.101 111.667 415.101H49.6613C49.2607 415.101 48.936 415.426 48.936 415.826V435.407C48.936 435.808 49.2607 436.132 49.6613 436.132H111.667Z" fill="white"/>
<path fill-rule="evenodd" clip-rule="evenodd" d="M344.452 496.649H385.064V470.542H448.52V496.649H488.769V405.635C488.769 393.62 479.029 383.879 467.013 383.879H366.208C354.193 383.879 344.452 393.62 344.452 405.635V496.649ZM447.795 438.632C448.195 438.632 448.52 438.308 448.52 437.907V418.326C448.52 417.926 448.195 417.601 447.795 417.601H385.789C385.389 417.601 385.064 417.926 385.064 418.326V437.907C385.064 438.308 385.389 438.632 385.789 438.632H447.795Z" fill="white"/>
<path fill-rule="evenodd" clip-rule="evenodd" d="M515.927 381.379C515.527 381.379 515.202 381.704 515.202 382.104V493.424C515.202 493.825 515.527 494.149 515.927 494.149H637.763C649.779 494.149 659.519 484.409 659.519 472.393V403.135C659.519 391.12 649.779 381.379 637.763 381.379H515.927ZM619.27 460.79C619.67 460.79 619.995 460.465 619.995 460.064V415.826C619.995 415.426 619.67 415.101 619.27 415.101H556.902C556.501 415.101 556.177 415.426 556.177 415.826V460.064C556.177 460.465 556.501 460.79 556.902 460.79H619.27Z" fill="white" stroke="black" stroke-width="0.725211"/>
<path d="M812.898 493.787H685.261C684.861 493.787 684.536 493.462 684.536 493.061V382.104C684.536 381.704 684.861 381.379 685.261 381.379H812.898C813.299 381.379 813.624 381.704 813.624 382.104V410.75C813.624 411.15 813.299 411.475 812.898 411.475H726.961C726.56 411.475 726.236 411.8 726.236 412.2V423.804C726.236 424.204 726.56 424.529 726.961 424.529H811.448C811.849 424.529 812.173 424.854 812.173 425.254V450.274C812.173 450.674 811.849 450.999 811.448 450.999H726.961C726.56 450.999 726.236 451.324 726.236 451.724V462.965C726.236 463.366 726.56 463.69 726.961 463.69H812.898C813.299 463.69 813.624 464.015 813.624 464.416V493.061C813.624 493.462 813.299 493.787 812.898 493.787Z" fill="white" stroke="black" stroke-width="0.725211"/>
<path d="M880.391 417.593V493.378C880.391 493.778 880.067 494.103 879.666 494.103H839.054C838.654 494.103 838.329 493.778 838.329 493.378V406.633C838.329 392.86 849.494 381.695 863.267 381.695H929.666C936.099 381.695 942.108 384.341 946.423 388.799C950.506 384.37 956.333 381.695 962.628 381.695H1031.05C1043.97 381.695 1054.44 392.168 1054.44 405.088V493.378C1054.44 493.778 1054.12 494.103 1053.72 494.103H1013.47C1013.07 494.103 1012.74 493.778 1012.74 493.378V417.593C1012.74 417.193 1012.42 416.868 1012.02 416.868H967.054C966.654 416.868 966.329 417.193 966.329 417.593V493.378C966.329 493.778 966.004 494.103 965.604 494.103H927.167C926.767 494.103 926.442 493.778 926.442 493.378V417.593C926.442 417.193 926.118 416.868 925.717 416.868H881.117C880.716 416.868 880.391 417.193 880.391 417.593Z" fill="white" stroke="black" stroke-width="0.725211"/>
<path d="M1220.55 380.98H1180.68C1180.27 380.98 1179.95 381.309 1179.95 381.712L1180.26 414.888C1180.29 418.411 1178.61 421.732 1175.76 423.799L1150.06 442.408C1149.29 442.967 1148.24 442.959 1147.48 442.387L1122.65 423.768C1119.91 421.714 1118.3 418.489 1118.3 415.065V381.706C1118.3 381.305 1117.98 380.98 1117.58 380.98H1077.69C1077.29 380.98 1076.97 381.305 1076.97 381.706V424.194C1076.97 431.209 1080.35 437.795 1086.05 441.88L1127.79 471.777C1127.98 471.914 1128.09 472.133 1128.09 472.367V493.388C1128.09 493.789 1128.42 494.113 1128.82 494.113H1169.07C1169.47 494.113 1169.79 493.789 1169.79 493.388V472.367C1169.79 472.133 1169.91 471.914 1170.1 471.777L1211.91 441.827C1217.57 437.771 1220.95 431.25 1220.99 424.285L1221.28 381.711C1221.28 381.308 1220.96 380.98 1220.55 380.98Z" fill="white"/>
<path fill-rule="evenodd" clip-rule="evenodd" d="M1.5612 50.6665C1.25229 23.3277 23.3291 1 50.6696 1H325.955C353.078 1 375.066 22.988 375.066 50.1116V241.647C375.066 268.77 353.078 290.758 325.955 290.758H52.8339C25.9268 290.758 4.02946 269.107 3.72544 242.202L1.5612 50.6665ZM273.569 203.176V90.2194H109.045V203.176H273.569Z" fill="white" stroke="white" stroke-width="1.63705"/>
<path d="M532.498 2.62695H427.727V156.891C427.727 172.134 434.804 186.513 446.884 195.81L571.217 291.505C572.648 292.607 574.403 293.204 576.209 293.204H661.269C663.213 293.204 665.094 292.512 666.574 291.252L784.514 190.862C795.477 181.531 801.793 167.86 801.793 153.464V2.62695H692.111V138.851C692.111 141.229 691.077 143.489 689.279 145.043L616.695 207.798C614.872 209.374 612.175 209.395 610.328 207.846L535.424 145.049C533.569 143.493 532.498 141.197 532.498 138.776V2.62695Z" fill="white" stroke="white" stroke-width="1.63705"/>
<path d="M1213.56 91.8564H1078.51V293.214H972.915V91.8564H841.951V1H1213.56V91.8564Z" fill="white" stroke="white" stroke-width="1.63705"/>
</svg>
