<svg width="2253" height="236" viewBox="0 0 2253 236" fill="none" xmlns="http://www.w3.org/2000/svg">
<path fill-rule="evenodd" clip-rule="evenodd" d="M1.44981 40.8084C1.20221 18.8959 18.8971 1 40.811 1H261.456C283.196 1 300.82 18.6237 300.82 40.3637V193.882C300.82 215.622 283.196 233.246 261.456 233.246H42.5457C20.9792 233.246 3.42816 215.892 3.18448 194.327L1.44981 40.8084ZM219.468 163.047V72.5107H87.6001V163.047H219.468Z" fill="white" stroke="white" stroke-width="1.31212"/>
<path d="M427.004 2.30078H343.028V125.946C343.028 138.164 348.701 149.688 358.383 157.14L458.038 233.841C459.185 234.724 460.592 235.203 462.04 235.203H530.216C531.774 235.203 533.282 234.648 534.468 233.638L628.999 153.174C637.786 145.695 642.848 134.737 642.848 123.199V2.30078H554.936V111.487C554.936 113.392 554.108 115.203 552.666 116.45L494.489 166.748C493.028 168.012 490.866 168.028 489.386 166.787L429.35 116.454C427.863 115.207 427.004 113.367 427.004 111.426V2.30078Z" fill="white" stroke="white" stroke-width="1.31212"/>
<path d="M972.887 73.8228H864.637V235.214H780.005V73.8228H675.035V1H972.887V73.8228Z" fill="white" stroke="white" stroke-width="1.31212"/>
<path d="M1688.88 231.715H1463.13C1462.23 231.715 1461.5 230.984 1461.5 230.084V5.83786C1461.5 4.93718 1462.23 4.20703 1463.13 4.20703H1688.88C1689.78 4.20703 1690.51 4.93718 1690.51 5.83786V63.4895C1690.51 64.3902 1689.78 65.1204 1688.88 65.1204H1537.11C1536.21 65.1204 1535.48 65.8505 1535.48 66.7512V89.9098C1535.48 90.8104 1536.21 91.5406 1537.11 91.5406H1686.31C1687.21 91.5406 1687.94 92.2708 1687.94 93.1714V143.484C1687.94 144.385 1687.21 145.115 1686.31 145.115H1537.11C1536.21 145.115 1535.48 145.845 1535.48 146.746V169.17C1535.48 170.071 1536.21 170.801 1537.11 170.801H1688.88C1689.78 170.801 1690.51 171.531 1690.51 172.432V230.084C1690.51 230.984 1689.78 231.715 1688.88 231.715Z" fill="#3766FF"/>
<path d="M1955.98 231.715H1730.23C1729.33 231.715 1728.6 230.984 1728.6 230.084V5.83786C1728.6 4.93718 1729.33 4.20703 1730.23 4.20703H1955.98C1956.88 4.20703 1957.61 4.93718 1957.61 5.83786V63.4895C1957.61 64.3902 1956.88 65.1204 1955.98 65.1204H1804.2C1803.3 65.1204 1802.57 65.8505 1802.57 66.7512V89.9098C1802.57 90.8104 1803.3 91.5406 1804.2 91.5406H1953.4C1954.3 91.5406 1955.03 92.2708 1955.03 93.1714V143.484C1955.03 144.385 1954.3 145.115 1953.4 145.115H1804.2C1803.3 145.115 1802.57 145.845 1802.57 146.746V169.17C1802.57 170.071 1803.3 170.801 1804.2 170.801H1955.98C1956.88 170.801 1957.61 171.531 1957.61 172.432V230.084C1957.61 230.984 1956.88 231.715 1955.98 231.715Z" fill="#3766FF"/>
<path d="M1114.64 77.0257V230.084C1114.64 230.984 1113.91 231.715 1113.01 231.715H1041.65C1040.75 231.715 1040.02 230.984 1040.02 230.084V46.7828C1040.02 23.2688 1059.08 4.20703 1082.59 4.20703H1198.78C1211.68 4.20703 1223.64 9.82254 1231.85 19.1277C1239.73 9.87632 1251.42 4.20703 1264.15 4.20703H1383.18C1405.4 4.20703 1423.42 22.2223 1423.42 44.4452V230.084C1423.42 230.984 1422.69 231.715 1421.79 231.715H1351.07C1350.17 231.715 1349.44 230.984 1349.44 230.084V77.0257C1349.44 76.125 1348.71 75.3949 1347.81 75.3949H1268.73C1267.83 75.3949 1267.1 76.125 1267.1 77.0257V230.084C1267.1 230.984 1266.37 231.715 1265.47 231.715H1197.97C1197.07 231.715 1196.34 230.984 1196.34 230.084V77.0257C1196.34 76.125 1195.61 75.3949 1194.71 75.3949H1116.27C1115.37 75.3949 1114.64 76.125 1114.64 77.0257Z" fill="#3766FF"/>
<path d="M2253 75.9797H2159.49V235.043H2086.37V75.9797H1995.69V4.20703H2253V75.9797Z" fill="#3766FF"/>
</svg>
